cover
 
http://www.dreadcentral.com/img/news/jan09/talesancientempireteaser1b.jpg

Genre:Action | Adventure
Language:English
IMDb:http://www.imdb.com/title/tt1136688/
Source:DVD5 RUS
Subtitles:Romana

General
Complete name :Tales.of.an.Ancient.Empire.2010.R5.H264.Feel-Free
Format : MPEG-4
Format profile : Base Media / Version 2
Codec ID : mp42
File size : 863 MiB
Duration : 1h 25mn
Overall bit rate : 1 409 Kbps
Video #1
Codec ID : avc1
Codec ID/Info : Advanced Video Coding
Duration : 1h 25mn
Bit rate mode : Variable
Bit rate : 854 Kbps
Width : 720 pixels
Height : 384 pixels
Display aspect ratio : 1.875
Frame rate mode : Constant
Frame rate : 23.976 fps
Resolution : 24 bits
Colorimetry : 4:2:0
Scan type : Progressive
Bits/(Pixel*Frame) : 0.129
Stream size : 523 MiB (61%)
Audio #2
ID : 2
Format : AAC
Format/Info : Advanced Audio Codec
Format version : Version 4
Format profile : LC
Format settings, SBR : No
Codec ID : 40
Duration : 1h 25mn
Bit rate mode : Constant
Bit rate : 551 Kbps
Nominal bit rate : 576 Kbps
Channel(s) : 6 channels
Channel positions : Front: L C R, Rear: L R, LFE
Sampling rate : 48.0 KHz
Resolution : 16 bits
Stream size : 338 MiB (39%)

Plot:
A princess is on a quest to unite the five greatest warriors to save her kingdom from a demon sorceress.

TRAILER: 
http://www.traileraddict.com/trailer/tales-of-an-ancient-empire/red-band-trailer

screens
 
http://img215.imageshack.us/img215/6561/talesofanancientempire2.jpg
 
http://img8.imageshack.us/img8/6561/talesofanancientempire2.jpg
 
http://img25.imageshack.us/img25/6561/talesofanancientempire2.jpg
 
http://img801.imageshack.us/img801/3773/talesofanancientempire2q.jpg